G04 #@! TF.GenerationSoftware,KiCad,Pcbnew,(5.1.10-1-10_14)*
G04 #@! TF.CreationDate,2021-08-08T19:51:24+09:00*
G04 #@! TF.ProjectId,MiniCon,4d696e69-436f-46e2-9e6b-696361645f70,V1.0*
G04 #@! TF.SameCoordinates,Original*
G04 #@! TF.FileFunction,Copper,L1,Top*
G04 #@! TF.FilePolarity,Positive*
%FSLAX46Y46*%
G04 Gerber Fmt 4.6, Leading zero omitted, Abs format (unit mm)*
G04 Created by KiCad (PCBNEW (5.1.10-1-10_14)) date 2021-08-08 19:51:24*
%MOMM*%
%LPD*%
G01*
G04 APERTURE LIST*
G04 #@! TA.AperFunction,SMDPad,CuDef*
%ADD10R,1.200000X1.800000*%
G04 #@! TD*
G04 #@! TA.AperFunction,SMDPad,CuDef*
%ADD11R,1.060000X0.500000*%
G04 #@! TD*
G04 #@! TA.AperFunction,SMDPad,CuDef*
%ADD12R,1.500000X0.700000*%
G04 #@! TD*
G04 #@! TA.AperFunction,SMDPad,CuDef*
%ADD13C,0.100000*%
G04 #@! TD*
G04 #@! TA.AperFunction,SMDPad,CuDef*
%ADD14R,0.650000X1.000000*%
G04 #@! TD*
G04 #@! TA.AperFunction,SMDPad,CuDef*
%ADD15R,0.350000X1.000000*%
G04 #@! TD*
G04 #@! TA.AperFunction,ComponentPad*
%ADD16C,1.300000*%
G04 #@! TD*
G04 #@! TA.AperFunction,SMDPad,CuDef*
%ADD17R,0.900000X0.800000*%
G04 #@! TD*
G04 #@! TA.AperFunction,SMDPad,CuDef*
%ADD18R,3.200000X1.400000*%
G04 #@! TD*
G04 #@! TA.AperFunction,SMDPad,CuDef*
%ADD19R,1.800000X2.200000*%
G04 #@! TD*
G04 #@! TA.AperFunction,SMDPad,CuDef*
%ADD20R,0.150000X1.300000*%
G04 #@! TD*
G04 #@! TA.AperFunction,ComponentPad*
%ADD21R,1.000000X1.000000*%
G04 #@! TD*
G04 #@! TA.AperFunction,ComponentPad*
%ADD22O,1.000000X1.000000*%
G04 #@! TD*
G04 #@! TA.AperFunction,ComponentPad*
%ADD23R,1.400000X1.400000*%
G04 #@! TD*
G04 #@! TA.AperFunction,ComponentPad*
%ADD24C,1.400000*%
G04 #@! TD*
G04 #@! TA.AperFunction,SMDPad,CuDef*
%ADD25R,1.000000X2.000000*%
G04 #@! TD*
G04 #@! TA.AperFunction,ViaPad*
%ADD26C,0.609600*%
G04 #@! TD*
G04 #@! TA.AperFunction,Conductor*
%ADD27C,0.203200*%
G04 #@! TD*
G04 #@! TA.AperFunction,Conductor*
%ADD28C,0.254000*%
G04 #@! TD*
G04 APERTURE END LIST*
D10*
X200000Y3650000D03*
X2800000Y3650000D03*
D11*
X-9700000Y-12450000D03*
X-9700000Y-13400000D03*
X-9700000Y-14350000D03*
X-7500000Y-14350000D03*
X-7500000Y-12450000D03*
D12*
X1850000Y12500000D03*
X1850000Y9500000D03*
X-1850000Y12500000D03*
X-1850000Y9500000D03*
G04 #@! TA.AperFunction,SMDPad,CuDef*
D13*
G36*
X900000Y11500000D02*
G01*
X2600000Y11500000D01*
X2600000Y10500000D01*
X900000Y10500000D01*
X400000Y10000000D01*
X-400000Y10000000D01*
X-400000Y10500000D01*
X-2600000Y10500000D01*
X-2600000Y11500000D01*
X-400000Y11500000D01*
X-400000Y12000000D01*
X400000Y12000000D01*
X900000Y11500000D01*
G37*
G04 #@! TD.AperFunction*
D14*
X1050000Y-14250000D03*
D15*
X200000Y-14250000D03*
X-500000Y-14250000D03*
X-1200000Y-14250000D03*
D14*
X-2050000Y-14250000D03*
X-2050000Y-12150000D03*
D15*
X-1200000Y-12150000D03*
X-500000Y-12150000D03*
X200000Y-12150000D03*
D14*
X1050000Y-12150000D03*
D11*
X7600000Y11050000D03*
X7600000Y12000000D03*
X7600000Y12950000D03*
X5400000Y12950000D03*
X5400000Y11050000D03*
X5400000Y12000000D03*
X-7600000Y12950000D03*
X-7600000Y12000000D03*
X-7600000Y11050000D03*
X-5400000Y11050000D03*
X-5400000Y12950000D03*
X-5400000Y12000000D03*
D16*
X12000000Y-5000000D03*
X12000000Y-3000000D03*
X12000000Y-1000000D03*
G04 #@! TA.AperFunction,SMDPad,CuDef*
G36*
G01*
X-10200000Y7700000D02*
X-9800000Y7700000D01*
G75*
G02*
X-9600000Y7500000I0J-200000D01*
G01*
X-9600000Y7000000D01*
G75*
G02*
X-9800000Y6800000I-200000J0D01*
G01*
X-10200000Y6800000D01*
G75*
G02*
X-10400000Y7000000I0J200000D01*
G01*
X-10400000Y7500000D01*
G75*
G02*
X-10200000Y7700000I200000J0D01*
G01*
G37*
G04 #@! TD.AperFunction*
G04 #@! TA.AperFunction,SMDPad,CuDef*
G36*
G01*
X-10200000Y6000000D02*
X-9800000Y6000000D01*
G75*
G02*
X-9600000Y5800000I0J-200000D01*
G01*
X-9600000Y5300000D01*
G75*
G02*
X-9800000Y5100000I-200000J0D01*
G01*
X-10200000Y5100000D01*
G75*
G02*
X-10400000Y5300000I0J200000D01*
G01*
X-10400000Y5800000D01*
G75*
G02*
X-10200000Y6000000I200000J0D01*
G01*
G37*
G04 #@! TD.AperFunction*
G04 #@! TA.AperFunction,SMDPad,CuDef*
G36*
G01*
X9300000Y-1300000D02*
X9700000Y-1300000D01*
G75*
G02*
X9900000Y-1500000I0J-200000D01*
G01*
X9900000Y-2000000D01*
G75*
G02*
X9700000Y-2200000I-200000J0D01*
G01*
X9300000Y-2200000D01*
G75*
G02*
X9100000Y-2000000I0J200000D01*
G01*
X9100000Y-1500000D01*
G75*
G02*
X9300000Y-1300000I200000J0D01*
G01*
G37*
G04 #@! TD.AperFunction*
G04 #@! TA.AperFunction,SMDPad,CuDef*
G36*
G01*
X9300000Y-3000000D02*
X9700000Y-3000000D01*
G75*
G02*
X9900000Y-3200000I0J-200000D01*
G01*
X9900000Y-3700000D01*
G75*
G02*
X9700000Y-3900000I-200000J0D01*
G01*
X9300000Y-3900000D01*
G75*
G02*
X9100000Y-3700000I0J200000D01*
G01*
X9100000Y-3200000D01*
G75*
G02*
X9300000Y-3000000I200000J0D01*
G01*
G37*
G04 #@! TD.AperFunction*
G04 #@! TA.AperFunction,SMDPad,CuDef*
G36*
G01*
X6300000Y-1300000D02*
X6700000Y-1300000D01*
G75*
G02*
X6900000Y-1500000I0J-200000D01*
G01*
X6900000Y-2000000D01*
G75*
G02*
X6700000Y-2200000I-200000J0D01*
G01*
X6300000Y-2200000D01*
G75*
G02*
X6100000Y-2000000I0J200000D01*
G01*
X6100000Y-1500000D01*
G75*
G02*
X6300000Y-1300000I200000J0D01*
G01*
G37*
G04 #@! TD.AperFunction*
G04 #@! TA.AperFunction,SMDPad,CuDef*
G36*
G01*
X6300000Y-3000000D02*
X6700000Y-3000000D01*
G75*
G02*
X6900000Y-3200000I0J-200000D01*
G01*
X6900000Y-3700000D01*
G75*
G02*
X6700000Y-3900000I-200000J0D01*
G01*
X6300000Y-3900000D01*
G75*
G02*
X6100000Y-3700000I0J200000D01*
G01*
X6100000Y-3200000D01*
G75*
G02*
X6300000Y-3000000I200000J0D01*
G01*
G37*
G04 #@! TD.AperFunction*
G04 #@! TA.AperFunction,SMDPad,CuDef*
G36*
G01*
X-5700000Y7700000D02*
X-5300000Y7700000D01*
G75*
G02*
X-5100000Y7500000I0J-200000D01*
G01*
X-5100000Y7000000D01*
G75*
G02*
X-5300000Y6800000I-200000J0D01*
G01*
X-5700000Y6800000D01*
G75*
G02*
X-5900000Y7000000I0J200000D01*
G01*
X-5900000Y7500000D01*
G75*
G02*
X-5700000Y7700000I200000J0D01*
G01*
G37*
G04 #@! TD.AperFunction*
G04 #@! TA.AperFunction,SMDPad,CuDef*
G36*
G01*
X-5700000Y6000000D02*
X-5300000Y6000000D01*
G75*
G02*
X-5100000Y5800000I0J-200000D01*
G01*
X-5100000Y5300000D01*
G75*
G02*
X-5300000Y5100000I-200000J0D01*
G01*
X-5700000Y5100000D01*
G75*
G02*
X-5900000Y5300000I0J200000D01*
G01*
X-5900000Y5800000D01*
G75*
G02*
X-5700000Y6000000I200000J0D01*
G01*
G37*
G04 #@! TD.AperFunction*
G04 #@! TA.AperFunction,SMDPad,CuDef*
G36*
G01*
X8200000Y-3900000D02*
X7800000Y-3900000D01*
G75*
G02*
X7600000Y-3700000I0J200000D01*
G01*
X7600000Y-3200000D01*
G75*
G02*
X7800000Y-3000000I200000J0D01*
G01*
X8200000Y-3000000D01*
G75*
G02*
X8400000Y-3200000I0J-200000D01*
G01*
X8400000Y-3700000D01*
G75*
G02*
X8200000Y-3900000I-200000J0D01*
G01*
G37*
G04 #@! TD.AperFunction*
G04 #@! TA.AperFunction,SMDPad,CuDef*
G36*
G01*
X8200000Y-2200000D02*
X7800000Y-2200000D01*
G75*
G02*
X7600000Y-2000000I0J200000D01*
G01*
X7600000Y-1500000D01*
G75*
G02*
X7800000Y-1300000I200000J0D01*
G01*
X8200000Y-1300000D01*
G75*
G02*
X8400000Y-1500000I0J-200000D01*
G01*
X8400000Y-2000000D01*
G75*
G02*
X8200000Y-2200000I-200000J0D01*
G01*
G37*
G04 #@! TD.AperFunction*
G04 #@! TA.AperFunction,SMDPad,CuDef*
G36*
G01*
X9300000Y11500000D02*
X9300000Y11900000D01*
G75*
G02*
X9500000Y12100000I200000J0D01*
G01*
X10000000Y12100000D01*
G75*
G02*
X10200000Y11900000I0J-200000D01*
G01*
X10200000Y11500000D01*
G75*
G02*
X10000000Y11300000I-200000J0D01*
G01*
X9500000Y11300000D01*
G75*
G02*
X9300000Y11500000I0J200000D01*
G01*
G37*
G04 #@! TD.AperFunction*
G04 #@! TA.AperFunction,SMDPad,CuDef*
G36*
G01*
X11000000Y11500000D02*
X11000000Y11900000D01*
G75*
G02*
X11200000Y12100000I200000J0D01*
G01*
X11700000Y12100000D01*
G75*
G02*
X11900000Y11900000I0J-200000D01*
G01*
X11900000Y11500000D01*
G75*
G02*
X11700000Y11300000I-200000J0D01*
G01*
X11200000Y11300000D01*
G75*
G02*
X11000000Y11500000I0J200000D01*
G01*
G37*
G04 #@! TD.AperFunction*
G04 #@! TA.AperFunction,SMDPad,CuDef*
G36*
G01*
X-9300000Y11900000D02*
X-9300000Y11500000D01*
G75*
G02*
X-9500000Y11300000I-200000J0D01*
G01*
X-10000000Y11300000D01*
G75*
G02*
X-10200000Y11500000I0J200000D01*
G01*
X-10200000Y11900000D01*
G75*
G02*
X-10000000Y12100000I200000J0D01*
G01*
X-9500000Y12100000D01*
G75*
G02*
X-9300000Y11900000I0J-200000D01*
G01*
G37*
G04 #@! TD.AperFunction*
G04 #@! TA.AperFunction,SMDPad,CuDef*
G36*
G01*
X-11000000Y11900000D02*
X-11000000Y11500000D01*
G75*
G02*
X-11200000Y11300000I-200000J0D01*
G01*
X-11700000Y11300000D01*
G75*
G02*
X-11900000Y11500000I0J200000D01*
G01*
X-11900000Y11900000D01*
G75*
G02*
X-11700000Y12100000I200000J0D01*
G01*
X-11200000Y12100000D01*
G75*
G02*
X-11000000Y11900000I0J-200000D01*
G01*
G37*
G04 #@! TD.AperFunction*
G04 #@! TA.AperFunction,SMDPad,CuDef*
G36*
G01*
X4800000Y-14600000D02*
X4400000Y-14600000D01*
G75*
G02*
X4200000Y-14400000I0J200000D01*
G01*
X4200000Y-13900000D01*
G75*
G02*
X4400000Y-13700000I200000J0D01*
G01*
X4800000Y-13700000D01*
G75*
G02*
X5000000Y-13900000I0J-200000D01*
G01*
X5000000Y-14400000D01*
G75*
G02*
X4800000Y-14600000I-200000J0D01*
G01*
G37*
G04 #@! TD.AperFunction*
G04 #@! TA.AperFunction,SMDPad,CuDef*
G36*
G01*
X4800000Y-12900000D02*
X4400000Y-12900000D01*
G75*
G02*
X4200000Y-12700000I0J200000D01*
G01*
X4200000Y-12200000D01*
G75*
G02*
X4400000Y-12000000I200000J0D01*
G01*
X4800000Y-12000000D01*
G75*
G02*
X5000000Y-12200000I0J-200000D01*
G01*
X5000000Y-12700000D01*
G75*
G02*
X4800000Y-12900000I-200000J0D01*
G01*
G37*
G04 #@! TD.AperFunction*
D17*
X4700000Y-7000000D03*
X6700000Y-6050000D03*
X6700000Y-7950000D03*
D18*
X8400000Y8700000D03*
X8400000Y300000D03*
G04 #@! TA.AperFunction,SMDPad,CuDef*
G36*
G01*
X-4200000Y7700000D02*
X-3800000Y7700000D01*
G75*
G02*
X-3600000Y7500000I0J-200000D01*
G01*
X-3600000Y7000000D01*
G75*
G02*
X-3800000Y6800000I-200000J0D01*
G01*
X-4200000Y6800000D01*
G75*
G02*
X-4400000Y7000000I0J200000D01*
G01*
X-4400000Y7500000D01*
G75*
G02*
X-4200000Y7700000I200000J0D01*
G01*
G37*
G04 #@! TD.AperFunction*
G04 #@! TA.AperFunction,SMDPad,CuDef*
G36*
G01*
X-4200000Y6000000D02*
X-3800000Y6000000D01*
G75*
G02*
X-3600000Y5800000I0J-200000D01*
G01*
X-3600000Y5300000D01*
G75*
G02*
X-3800000Y5100000I-200000J0D01*
G01*
X-4200000Y5100000D01*
G75*
G02*
X-4400000Y5300000I0J200000D01*
G01*
X-4400000Y5800000D01*
G75*
G02*
X-4200000Y6000000I200000J0D01*
G01*
G37*
G04 #@! TD.AperFunction*
D19*
X4650000Y-3100000D03*
X-4650000Y-3100000D03*
D20*
X-2750000Y150000D03*
X-2250000Y150000D03*
X-1750000Y150000D03*
X-1250000Y150000D03*
X-750000Y150000D03*
X-250000Y150000D03*
X250000Y150000D03*
X750000Y150000D03*
X1250000Y150000D03*
X1750000Y150000D03*
X2250000Y150000D03*
X2750000Y150000D03*
D21*
X-11000000Y-1000000D03*
D22*
X-11000000Y-2270000D03*
X-11000000Y-3540000D03*
X-11000000Y-4810000D03*
X-11000000Y-6080000D03*
D23*
X8900000Y-10050000D03*
D24*
X6360000Y-10050000D03*
X3820000Y-10050000D03*
X1280000Y-10050000D03*
X-1260000Y-10050000D03*
X-3800000Y-10050000D03*
X-6340000Y-10050000D03*
X-8880000Y-10050000D03*
G04 #@! TA.AperFunction,SMDPad,CuDef*
G36*
G01*
X-2300000Y5100000D02*
X-2700000Y5100000D01*
G75*
G02*
X-2900000Y5300000I0J200000D01*
G01*
X-2900000Y5800000D01*
G75*
G02*
X-2700000Y6000000I200000J0D01*
G01*
X-2300000Y6000000D01*
G75*
G02*
X-2100000Y5800000I0J-200000D01*
G01*
X-2100000Y5300000D01*
G75*
G02*
X-2300000Y5100000I-200000J0D01*
G01*
G37*
G04 #@! TD.AperFunction*
G04 #@! TA.AperFunction,SMDPad,CuDef*
G36*
G01*
X-2300000Y6800000D02*
X-2700000Y6800000D01*
G75*
G02*
X-2900000Y7000000I0J200000D01*
G01*
X-2900000Y7500000D01*
G75*
G02*
X-2700000Y7700000I200000J0D01*
G01*
X-2300000Y7700000D01*
G75*
G02*
X-2100000Y7500000I0J-200000D01*
G01*
X-2100000Y7000000D01*
G75*
G02*
X-2300000Y6800000I-200000J0D01*
G01*
G37*
G04 #@! TD.AperFunction*
G04 #@! TA.AperFunction,SMDPad,CuDef*
G36*
G01*
X-11300000Y5100000D02*
X-11700000Y5100000D01*
G75*
G02*
X-11900000Y5300000I0J200000D01*
G01*
X-11900000Y5800000D01*
G75*
G02*
X-11700000Y6000000I200000J0D01*
G01*
X-11300000Y6000000D01*
G75*
G02*
X-11100000Y5800000I0J-200000D01*
G01*
X-11100000Y5300000D01*
G75*
G02*
X-11300000Y5100000I-200000J0D01*
G01*
G37*
G04 #@! TD.AperFunction*
G04 #@! TA.AperFunction,SMDPad,CuDef*
G36*
G01*
X-11300000Y6800000D02*
X-11700000Y6800000D01*
G75*
G02*
X-11900000Y7000000I0J200000D01*
G01*
X-11900000Y7500000D01*
G75*
G02*
X-11700000Y7700000I200000J0D01*
G01*
X-11300000Y7700000D01*
G75*
G02*
X-11100000Y7500000I0J-200000D01*
G01*
X-11100000Y7000000D01*
G75*
G02*
X-11300000Y6800000I-200000J0D01*
G01*
G37*
G04 #@! TD.AperFunction*
G04 #@! TA.AperFunction,SMDPad,CuDef*
G36*
G01*
X11900000Y13400000D02*
X11900000Y13000000D01*
G75*
G02*
X11700000Y12800000I-200000J0D01*
G01*
X11200000Y12800000D01*
G75*
G02*
X11000000Y13000000I0J200000D01*
G01*
X11000000Y13400000D01*
G75*
G02*
X11200000Y13600000I200000J0D01*
G01*
X11700000Y13600000D01*
G75*
G02*
X11900000Y13400000I0J-200000D01*
G01*
G37*
G04 #@! TD.AperFunction*
G04 #@! TA.AperFunction,SMDPad,CuDef*
G36*
G01*
X10200000Y13400000D02*
X10200000Y13000000D01*
G75*
G02*
X10000000Y12800000I-200000J0D01*
G01*
X9500000Y12800000D01*
G75*
G02*
X9300000Y13000000I0J200000D01*
G01*
X9300000Y13400000D01*
G75*
G02*
X9500000Y13600000I200000J0D01*
G01*
X10000000Y13600000D01*
G75*
G02*
X10200000Y13400000I0J-200000D01*
G01*
G37*
G04 #@! TD.AperFunction*
G04 #@! TA.AperFunction,SMDPad,CuDef*
G36*
G01*
X-11900000Y13000000D02*
X-11900000Y13400000D01*
G75*
G02*
X-11700000Y13600000I200000J0D01*
G01*
X-11200000Y13600000D01*
G75*
G02*
X-11000000Y13400000I0J-200000D01*
G01*
X-11000000Y13000000D01*
G75*
G02*
X-11200000Y12800000I-200000J0D01*
G01*
X-11700000Y12800000D01*
G75*
G02*
X-11900000Y13000000I0J200000D01*
G01*
G37*
G04 #@! TD.AperFunction*
G04 #@! TA.AperFunction,SMDPad,CuDef*
G36*
G01*
X-10200000Y13000000D02*
X-10200000Y13400000D01*
G75*
G02*
X-10000000Y13600000I200000J0D01*
G01*
X-9500000Y13600000D01*
G75*
G02*
X-9300000Y13400000I0J-200000D01*
G01*
X-9300000Y13000000D01*
G75*
G02*
X-9500000Y12800000I-200000J0D01*
G01*
X-10000000Y12800000D01*
G75*
G02*
X-10200000Y13000000I0J200000D01*
G01*
G37*
G04 #@! TD.AperFunction*
G04 #@! TA.AperFunction,SMDPad,CuDef*
G36*
G01*
X-7100000Y-6500000D02*
X-7500000Y-6500000D01*
G75*
G02*
X-7700000Y-6300000I0J200000D01*
G01*
X-7700000Y-5800000D01*
G75*
G02*
X-7500000Y-5600000I200000J0D01*
G01*
X-7100000Y-5600000D01*
G75*
G02*
X-6900000Y-5800000I0J-200000D01*
G01*
X-6900000Y-6300000D01*
G75*
G02*
X-7100000Y-6500000I-200000J0D01*
G01*
G37*
G04 #@! TD.AperFunction*
G04 #@! TA.AperFunction,SMDPad,CuDef*
G36*
G01*
X-7100000Y-4800000D02*
X-7500000Y-4800000D01*
G75*
G02*
X-7700000Y-4600000I0J200000D01*
G01*
X-7700000Y-4100000D01*
G75*
G02*
X-7500000Y-3900000I200000J0D01*
G01*
X-7100000Y-3900000D01*
G75*
G02*
X-6900000Y-4100000I0J-200000D01*
G01*
X-6900000Y-4600000D01*
G75*
G02*
X-7100000Y-4800000I-200000J0D01*
G01*
G37*
G04 #@! TD.AperFunction*
G04 #@! TA.AperFunction,SMDPad,CuDef*
G36*
G01*
X-8300000Y5100000D02*
X-8700000Y5100000D01*
G75*
G02*
X-8900000Y5300000I0J200000D01*
G01*
X-8900000Y5800000D01*
G75*
G02*
X-8700000Y6000000I200000J0D01*
G01*
X-8300000Y6000000D01*
G75*
G02*
X-8100000Y5800000I0J-200000D01*
G01*
X-8100000Y5300000D01*
G75*
G02*
X-8300000Y5100000I-200000J0D01*
G01*
G37*
G04 #@! TD.AperFunction*
G04 #@! TA.AperFunction,SMDPad,CuDef*
G36*
G01*
X-8300000Y6800000D02*
X-8700000Y6800000D01*
G75*
G02*
X-8900000Y7000000I0J200000D01*
G01*
X-8900000Y7500000D01*
G75*
G02*
X-8700000Y7700000I200000J0D01*
G01*
X-8300000Y7700000D01*
G75*
G02*
X-8100000Y7500000I0J-200000D01*
G01*
X-8100000Y7000000D01*
G75*
G02*
X-8300000Y6800000I-200000J0D01*
G01*
G37*
G04 #@! TD.AperFunction*
G04 #@! TA.AperFunction,SMDPad,CuDef*
G36*
G01*
X600000Y5100000D02*
X600000Y5400000D01*
G75*
G02*
X750000Y5550000I150000J0D01*
G01*
X1050000Y5550000D01*
G75*
G02*
X1200000Y5400000I0J-150000D01*
G01*
X1200000Y5100000D01*
G75*
G02*
X1050000Y4950000I-150000J0D01*
G01*
X750000Y4950000D01*
G75*
G02*
X600000Y5100000I0J150000D01*
G01*
G37*
G04 #@! TD.AperFunction*
G04 #@! TA.AperFunction,SMDPad,CuDef*
G36*
G01*
X-400000Y5100000D02*
X-400000Y5400000D01*
G75*
G02*
X-250000Y5550000I150000J0D01*
G01*
X50000Y5550000D01*
G75*
G02*
X200000Y5400000I0J-150000D01*
G01*
X200000Y5100000D01*
G75*
G02*
X50000Y4950000I-150000J0D01*
G01*
X-250000Y4950000D01*
G75*
G02*
X-400000Y5100000I0J150000D01*
G01*
G37*
G04 #@! TD.AperFunction*
G04 #@! TA.AperFunction,SMDPad,CuDef*
G36*
G01*
X2400000Y5400000D02*
X2400000Y5100000D01*
G75*
G02*
X2250000Y4950000I-150000J0D01*
G01*
X1950000Y4950000D01*
G75*
G02*
X1800000Y5100000I0J150000D01*
G01*
X1800000Y5400000D01*
G75*
G02*
X1950000Y5550000I150000J0D01*
G01*
X2250000Y5550000D01*
G75*
G02*
X2400000Y5400000I0J-150000D01*
G01*
G37*
G04 #@! TD.AperFunction*
G04 #@! TA.AperFunction,SMDPad,CuDef*
G36*
G01*
X3400000Y5400000D02*
X3400000Y5100000D01*
G75*
G02*
X3250000Y4950000I-150000J0D01*
G01*
X2950000Y4950000D01*
G75*
G02*
X2800000Y5100000I0J150000D01*
G01*
X2800000Y5400000D01*
G75*
G02*
X2950000Y5550000I150000J0D01*
G01*
X3250000Y5550000D01*
G75*
G02*
X3400000Y5400000I0J-150000D01*
G01*
G37*
G04 #@! TD.AperFunction*
G04 #@! TA.AperFunction,SMDPad,CuDef*
G36*
G01*
X-4100000Y-12000000D02*
X-3700000Y-12000000D01*
G75*
G02*
X-3500000Y-12200000I0J-200000D01*
G01*
X-3500000Y-12700000D01*
G75*
G02*
X-3700000Y-12900000I-200000J0D01*
G01*
X-4100000Y-12900000D01*
G75*
G02*
X-4300000Y-12700000I0J200000D01*
G01*
X-4300000Y-12200000D01*
G75*
G02*
X-4100000Y-12000000I200000J0D01*
G01*
G37*
G04 #@! TD.AperFunction*
G04 #@! TA.AperFunction,SMDPad,CuDef*
G36*
G01*
X-4100000Y-13700000D02*
X-3700000Y-13700000D01*
G75*
G02*
X-3500000Y-13900000I0J-200000D01*
G01*
X-3500000Y-14400000D01*
G75*
G02*
X-3700000Y-14600000I-200000J0D01*
G01*
X-4100000Y-14600000D01*
G75*
G02*
X-4300000Y-14400000I0J200000D01*
G01*
X-4300000Y-13900000D01*
G75*
G02*
X-4100000Y-13700000I200000J0D01*
G01*
G37*
G04 #@! TD.AperFunction*
G04 #@! TA.AperFunction,SMDPad,CuDef*
G36*
G01*
X-5600000Y-12000000D02*
X-5200000Y-12000000D01*
G75*
G02*
X-5000000Y-12200000I0J-200000D01*
G01*
X-5000000Y-12700000D01*
G75*
G02*
X-5200000Y-12900000I-200000J0D01*
G01*
X-5600000Y-12900000D01*
G75*
G02*
X-5800000Y-12700000I0J200000D01*
G01*
X-5800000Y-12200000D01*
G75*
G02*
X-5600000Y-12000000I200000J0D01*
G01*
G37*
G04 #@! TD.AperFunction*
G04 #@! TA.AperFunction,SMDPad,CuDef*
G36*
G01*
X-5600000Y-13700000D02*
X-5200000Y-13700000D01*
G75*
G02*
X-5000000Y-13900000I0J-200000D01*
G01*
X-5000000Y-14400000D01*
G75*
G02*
X-5200000Y-14600000I-200000J0D01*
G01*
X-5600000Y-14600000D01*
G75*
G02*
X-5800000Y-14400000I0J200000D01*
G01*
X-5800000Y-13900000D01*
G75*
G02*
X-5600000Y-13700000I200000J0D01*
G01*
G37*
G04 #@! TD.AperFunction*
G04 #@! TA.AperFunction,SMDPad,CuDef*
G36*
G01*
X-11700000Y-14600000D02*
X-12100000Y-14600000D01*
G75*
G02*
X-12300000Y-14400000I0J200000D01*
G01*
X-12300000Y-13900000D01*
G75*
G02*
X-12100000Y-13700000I200000J0D01*
G01*
X-11700000Y-13700000D01*
G75*
G02*
X-11500000Y-13900000I0J-200000D01*
G01*
X-11500000Y-14400000D01*
G75*
G02*
X-11700000Y-14600000I-200000J0D01*
G01*
G37*
G04 #@! TD.AperFunction*
G04 #@! TA.AperFunction,SMDPad,CuDef*
G36*
G01*
X-11700000Y-12900000D02*
X-12100000Y-12900000D01*
G75*
G02*
X-12300000Y-12700000I0J200000D01*
G01*
X-12300000Y-12200000D01*
G75*
G02*
X-12100000Y-12000000I200000J0D01*
G01*
X-11700000Y-12000000D01*
G75*
G02*
X-11500000Y-12200000I0J-200000D01*
G01*
X-11500000Y-12700000D01*
G75*
G02*
X-11700000Y-12900000I-200000J0D01*
G01*
G37*
G04 #@! TD.AperFunction*
G04 #@! TA.AperFunction,SMDPad,CuDef*
G36*
G01*
X3400000Y12300000D02*
X3800000Y12300000D01*
G75*
G02*
X4000000Y12100000I0J-200000D01*
G01*
X4000000Y11600000D01*
G75*
G02*
X3800000Y11400000I-200000J0D01*
G01*
X3400000Y11400000D01*
G75*
G02*
X3200000Y11600000I0J200000D01*
G01*
X3200000Y12100000D01*
G75*
G02*
X3400000Y12300000I200000J0D01*
G01*
G37*
G04 #@! TD.AperFunction*
G04 #@! TA.AperFunction,SMDPad,CuDef*
G36*
G01*
X3400000Y10600000D02*
X3800000Y10600000D01*
G75*
G02*
X4000000Y10400000I0J-200000D01*
G01*
X4000000Y9900000D01*
G75*
G02*
X3800000Y9700000I-200000J0D01*
G01*
X3400000Y9700000D01*
G75*
G02*
X3200000Y9900000I0J200000D01*
G01*
X3200000Y10400000D01*
G75*
G02*
X3400000Y10600000I200000J0D01*
G01*
G37*
G04 #@! TD.AperFunction*
G04 #@! TA.AperFunction,SMDPad,CuDef*
G36*
G01*
X-3800000Y12300000D02*
X-3400000Y12300000D01*
G75*
G02*
X-3200000Y12100000I0J-200000D01*
G01*
X-3200000Y11600000D01*
G75*
G02*
X-3400000Y11400000I-200000J0D01*
G01*
X-3800000Y11400000D01*
G75*
G02*
X-4000000Y11600000I0J200000D01*
G01*
X-4000000Y12100000D01*
G75*
G02*
X-3800000Y12300000I200000J0D01*
G01*
G37*
G04 #@! TD.AperFunction*
G04 #@! TA.AperFunction,SMDPad,CuDef*
G36*
G01*
X-3800000Y10600000D02*
X-3400000Y10600000D01*
G75*
G02*
X-3200000Y10400000I0J-200000D01*
G01*
X-3200000Y9900000D01*
G75*
G02*
X-3400000Y9700000I-200000J0D01*
G01*
X-3800000Y9700000D01*
G75*
G02*
X-4000000Y9900000I0J200000D01*
G01*
X-4000000Y10400000D01*
G75*
G02*
X-3800000Y10600000I200000J0D01*
G01*
G37*
G04 #@! TD.AperFunction*
G04 #@! TA.AperFunction,SMDPad,CuDef*
G36*
G01*
X3300000Y-14600000D02*
X2900000Y-14600000D01*
G75*
G02*
X2700000Y-14400000I0J200000D01*
G01*
X2700000Y-13900000D01*
G75*
G02*
X2900000Y-13700000I200000J0D01*
G01*
X3300000Y-13700000D01*
G75*
G02*
X3500000Y-13900000I0J-200000D01*
G01*
X3500000Y-14400000D01*
G75*
G02*
X3300000Y-14600000I-200000J0D01*
G01*
G37*
G04 #@! TD.AperFunction*
G04 #@! TA.AperFunction,SMDPad,CuDef*
G36*
G01*
X3300000Y-12900000D02*
X2900000Y-12900000D01*
G75*
G02*
X2700000Y-12700000I0J200000D01*
G01*
X2700000Y-12200000D01*
G75*
G02*
X2900000Y-12000000I200000J0D01*
G01*
X3300000Y-12000000D01*
G75*
G02*
X3500000Y-12200000I0J-200000D01*
G01*
X3500000Y-12700000D01*
G75*
G02*
X3300000Y-12900000I-200000J0D01*
G01*
G37*
G04 #@! TD.AperFunction*
D25*
X9750000Y-6500000D03*
X8250000Y-6500000D03*
D26*
X1559600Y3140200D03*
X2667300Y8317300D03*
X1250000Y-1250000D03*
X278100Y-11131800D03*
X-4731600Y-11652700D03*
X2800000Y2072700D03*
X580100Y2193100D03*
X-9145000Y-5151200D03*
X-1819200Y8025700D03*
X-5573000Y750000D03*
X-3973200Y4585200D03*
X-2322200Y3135600D03*
X-6399800Y-652200D03*
X-2321100Y2238000D03*
X-1835300Y1564600D03*
X-1225400Y5573100D03*
X-750000Y-1010900D03*
X-250000Y2016000D03*
X-5064500Y13970000D03*
X5078400Y8990300D03*
X8723000Y-2483800D03*
X8834600Y-4255200D03*
X-4524900Y-6170100D03*
X-4909900Y-5234200D03*
X-8750000Y10600000D03*
X6500000Y12950000D03*
D27*
X1559600Y3140200D02*
X1559600Y2114500D01*
X1559600Y2114500D02*
X1659500Y2014600D01*
X1559600Y4709600D02*
X1559600Y3140200D01*
X1559600Y4709600D02*
X1440400Y4709600D01*
X1440400Y4709600D02*
X900000Y5250000D01*
X2100000Y5250000D02*
X1559600Y4709600D01*
X1659500Y2014600D02*
X750000Y1105100D01*
X2750000Y1105100D02*
X2569000Y1105100D01*
X2569000Y1105100D02*
X1659500Y2014600D01*
X5501600Y-4708400D02*
X3777400Y-4708400D01*
X787500Y10231500D02*
X3518500Y10231500D01*
X3518500Y10231500D02*
X3600000Y10150000D01*
X0Y11000000D02*
X768500Y10231500D01*
X768500Y10231500D02*
X787500Y10231500D01*
X900000Y8317300D02*
X787500Y8429800D01*
X787500Y8429800D02*
X787500Y10231500D01*
X6112200Y8317300D02*
X6494900Y8700000D01*
X900000Y5250000D02*
X900000Y8317300D01*
X8400000Y8700000D02*
X6494900Y8700000D01*
X154000Y-9411200D02*
X-4633000Y-4624200D01*
X-4633000Y-4624200D02*
X-7025800Y-4624200D01*
X-7025800Y-4624200D02*
X-7300000Y-4350000D01*
X-1200000Y-11344900D02*
X-1070700Y-11344900D01*
X-1070700Y-11344900D02*
X154000Y-10120200D01*
X154000Y-10120200D02*
X154000Y-9411200D01*
X4533200Y-9009000D02*
X556200Y-9009000D01*
X556200Y-9009000D02*
X154000Y-9411200D01*
X12000000Y-1000000D02*
X10738900Y-2261100D01*
X10738900Y-2261100D02*
X10738900Y-4206000D01*
X10738900Y-4206000D02*
X9750000Y-5194900D01*
X12000000Y-1000000D02*
X10305100Y694900D01*
X10305100Y694900D02*
X10305100Y8700000D01*
X6700000Y-6050000D02*
X6700000Y-5344900D01*
X9750000Y-6500000D02*
X9750000Y-5194900D01*
X9750000Y-5194900D02*
X6850000Y-5194900D01*
X6850000Y-5194900D02*
X6700000Y-5344900D01*
X5501600Y-4708400D02*
X5501600Y-8040600D01*
X5501600Y-8040600D02*
X4533200Y-9009000D01*
X6500000Y-3450000D02*
X6500000Y-3710000D01*
X6500000Y-3710000D02*
X5501600Y-4708400D01*
X-2750000Y150000D02*
X-2750000Y-805100D01*
X250000Y150000D02*
X250000Y-886700D01*
X250000Y-886700D02*
X-507400Y-1644100D01*
X-507400Y-1644100D02*
X-1911000Y-1644100D01*
X-1911000Y-1644100D02*
X-2750000Y-805100D01*
X-7300000Y-4350000D02*
X-8006000Y-5056000D01*
X-8006000Y-5056000D02*
X-8006000Y-9176000D01*
X-8006000Y-9176000D02*
X-8880000Y-10050000D01*
X-8283000Y9068700D02*
X-10656000Y11441600D01*
X-10656000Y11441600D02*
X-10656000Y12406000D01*
X-10656000Y12406000D02*
X-11450000Y13200000D01*
X-8500000Y7250000D02*
X-8283000Y7467000D01*
X-8283000Y7467000D02*
X-8283000Y9068600D01*
X-8283000Y9068600D02*
X-8283000Y9068700D01*
X-6764900Y12000000D02*
X-6764900Y10586800D01*
X-6764900Y10586800D02*
X-8283000Y9068700D01*
X-11000000Y-1000000D02*
X-11000000Y-194900D01*
X-11000000Y-194900D02*
X-10750000Y55100D01*
X-10750000Y55100D02*
X-10750000Y5966400D01*
X-10750000Y5966400D02*
X-10331800Y6384600D01*
X-10331800Y6384600D02*
X-9365400Y6384600D01*
X-9365400Y6384600D02*
X-8500000Y7250000D01*
X2750000Y150000D02*
X2750000Y1105100D01*
X-7600000Y12000000D02*
X-6764900Y12000000D01*
X750000Y150000D02*
X750000Y1105100D01*
X-5400000Y-14150000D02*
X-3900000Y-14150000D01*
X-8864900Y-13400000D02*
X-8864900Y-14262200D01*
X-8864900Y-14262200D02*
X-8221900Y-14905200D01*
X-8221900Y-14905200D02*
X-6155200Y-14905200D01*
X-6155200Y-14905200D02*
X-5400000Y-14150000D01*
X-8880000Y-10050000D02*
X-8864900Y-10065100D01*
X-8864900Y-10065100D02*
X-8864900Y-13400000D01*
X200000Y-13444900D02*
X-624700Y-13444900D01*
X-624700Y-13444900D02*
X-1200000Y-12869600D01*
X3100000Y-12450000D02*
X4858800Y-10691200D01*
X4858800Y-10691200D02*
X4858800Y-9334600D01*
X4858800Y-9334600D02*
X4533200Y-9009000D01*
X-1200000Y-12150000D02*
X-1200000Y-11344900D01*
X8400000Y8700000D02*
X10305100Y8700000D01*
X10305100Y8700000D02*
X12244000Y10638900D01*
X12244000Y10638900D02*
X12244000Y12406000D01*
X12244000Y12406000D02*
X11450000Y13200000D01*
X3100000Y-12450000D02*
X1350000Y-12450000D01*
X1350000Y-12450000D02*
X1050000Y-12150000D01*
X200000Y-14250000D02*
X200000Y-13444900D01*
X-1200000Y-12150000D02*
X-1200000Y-12869600D01*
X-9700000Y-13400000D02*
X-8864900Y-13400000D01*
X11450000Y13200000D02*
X10742700Y13907300D01*
X10742700Y13907300D02*
X9279800Y13907300D01*
X9279800Y13907300D02*
X8435100Y13062600D01*
X8435100Y13062600D02*
X8435100Y12000100D01*
X8435100Y12000100D02*
X8435000Y12000000D01*
X7600000Y12000000D02*
X8435000Y12000000D01*
X-11900000Y-12450000D02*
X-10950000Y-13400000D01*
X-10950000Y-13400000D02*
X-9700000Y-13400000D01*
X-3600000Y10150000D02*
X-2750000Y11000000D01*
X-2750000Y11000000D02*
X0Y11000000D01*
X750000Y1105100D02*
X255100Y1105100D01*
X250000Y1100000D02*
X250000Y150000D01*
X255100Y1105100D02*
X250000Y1100000D01*
X2750000Y1105100D02*
X2944900Y1105100D01*
X3250000Y-4181000D02*
X3777400Y-4708400D01*
X3250000Y800000D02*
X3250000Y-4181000D01*
X2944900Y1105100D02*
X3250000Y800000D01*
X9750000Y-6500000D02*
X9750000Y-8250000D01*
X9750000Y-8250000D02*
X10600000Y-9100000D01*
X10600000Y-10298642D02*
X7548642Y-13350000D01*
X10600000Y-9100000D02*
X10600000Y-10298642D01*
X7548642Y-13350000D02*
X3250000Y-13350000D01*
X3100000Y-13200000D02*
X3100000Y-12450000D01*
X3250000Y-13350000D02*
X3100000Y-13200000D01*
X2667300Y8317300D02*
X6112200Y8317300D01*
X900000Y8317300D02*
X2667300Y8317300D01*
X8250000Y-6500000D02*
X8250000Y-7805100D01*
X8250000Y-7805100D02*
X7894800Y-8160300D01*
X7894800Y-8160300D02*
X7894800Y-9986500D01*
X7894800Y-9986500D02*
X5431300Y-12450000D01*
X5431300Y-12450000D02*
X4600000Y-12450000D01*
X-500000Y-12150000D02*
X-500000Y-12955100D01*
X3100000Y-14150000D02*
X1905100Y-12955100D01*
X1905100Y-12955100D02*
X-500000Y-12955100D01*
X4600000Y-14150000D02*
X3100000Y-14150000D01*
X-11292400Y-11692700D02*
X-10535100Y-12450000D01*
X-11900000Y-14150000D02*
X-12625200Y-13424800D01*
X-12625200Y-13424800D02*
X-12625200Y-11982500D01*
X-12625200Y-11982500D02*
X-12335400Y-11692700D01*
X-12335400Y-11692700D02*
X-11292400Y-11692700D01*
X-4155100Y7405100D02*
X-5160200Y6400000D01*
X-5160200Y6400000D02*
X-5822900Y6400000D01*
X-5822900Y6400000D02*
X-8412800Y3810100D01*
X-8412800Y3810100D02*
X-8412800Y-8086200D01*
X-8412800Y-8086200D02*
X-11292400Y-10965800D01*
X-11292400Y-10965800D02*
X-11292400Y-11692700D01*
X-4155100Y7405100D02*
X-4000000Y7250000D01*
X-3600000Y11850000D02*
X-4310200Y11139800D01*
X-4310200Y11139800D02*
X-4310200Y7560200D01*
X-4310200Y7560200D02*
X-4155100Y7405100D01*
X-10535100Y-14350000D02*
X-10735100Y-14150000D01*
X-10735100Y-14150000D02*
X-11900000Y-14150000D01*
X-9700000Y-12450000D02*
X-10535100Y-12450000D01*
X-2905100Y12500000D02*
X-2950000Y12500000D01*
X-2950000Y12500000D02*
X-3600000Y11850000D01*
X-1850000Y12500000D02*
X-2905100Y12500000D01*
X-1850000Y12500000D02*
X1850000Y12500000D01*
X-9700000Y-14350000D02*
X-10535100Y-14350000D01*
X1250000Y150000D02*
X1250000Y-1250000D01*
X4318300Y11850000D02*
X4414900Y11850000D01*
X4414900Y11850000D02*
X4564900Y12000000D01*
X3600000Y11850000D02*
X4318300Y11850000D01*
X4318300Y11850000D02*
X4318300Y9680000D01*
X4318300Y9680000D02*
X4024900Y9386600D01*
X4024900Y9386600D02*
X3018500Y9386600D01*
X3018500Y9386600D02*
X2905100Y9500000D01*
X1850000Y9500000D02*
X2905100Y9500000D01*
X-10000000Y5550000D02*
X-10000000Y-2540000D01*
X-10000000Y-2540000D02*
X-11000000Y-3540000D01*
X4564900Y13168700D02*
X4564900Y13338500D01*
X4564900Y13338500D02*
X5551900Y14325500D01*
X5551900Y14325500D02*
X11491100Y14325500D01*
X11491100Y14325500D02*
X12974900Y12841700D01*
X12974900Y12841700D02*
X12974900Y-2025100D01*
X12974900Y-2025100D02*
X12000000Y-3000000D01*
X4564900Y12000000D02*
X4564900Y13168700D01*
X4564900Y13168700D02*
X-3505400Y13168700D01*
X-3505400Y13168700D02*
X-4564900Y12109200D01*
X-4564900Y12109200D02*
X-4564900Y12000000D01*
X-5400000Y12000000D02*
X-4564900Y12000000D01*
X-6235100Y7589800D02*
X-5895300Y7250000D01*
X-5895300Y7250000D02*
X-5500000Y7250000D01*
X-6235100Y12000000D02*
X-6235100Y7589800D01*
X-8500000Y5550000D02*
X-8274900Y5550000D01*
X-8274900Y5550000D02*
X-6235100Y7589800D01*
X-5400000Y12000000D02*
X-6235100Y12000000D01*
X-8500000Y5550000D02*
X-10000000Y5550000D01*
X-6340000Y-10050000D02*
X-7300000Y-9090000D01*
X-7300000Y-9090000D02*
X-7300000Y-6050000D01*
X5400000Y12000000D02*
X4564900Y12000000D01*
X-7500000Y-14350000D02*
X-6664900Y-14350000D01*
X-5400000Y-12450000D02*
X-6664900Y-13714900D01*
X-6664900Y-13714900D02*
X-6664900Y-14350000D01*
X-4731600Y-11693300D02*
X-5908200Y-11693300D01*
X-5908200Y-11693300D02*
X-6664900Y-12450000D01*
X-3900000Y-12450000D02*
X-4656700Y-11693300D01*
X-4656700Y-11693300D02*
X-4731600Y-11693300D01*
X-4731600Y-11693300D02*
X-4731600Y-11652700D01*
X278100Y-11131800D02*
X200000Y-11209900D01*
X200000Y-11209900D02*
X200000Y-12150000D01*
X-7500000Y-12450000D02*
X-6664900Y-12450000D01*
X2800000Y3650000D02*
X2800000Y4855100D01*
X3100000Y5250000D02*
X3100000Y5155100D01*
X3100000Y5155100D02*
X2800000Y4855100D01*
X2800000Y3650000D02*
X2800000Y2072700D01*
X200000Y2444900D02*
X451800Y2193100D01*
X451800Y2193100D02*
X580100Y2193100D01*
X200000Y3650000D02*
X200000Y4855100D01*
X-100000Y5250000D02*
X-100000Y5155100D01*
X-100000Y5155100D02*
X200000Y4855100D01*
X200000Y3650000D02*
X200000Y2444900D01*
X-9750000Y13200000D02*
X-10479100Y13929100D01*
X-10479100Y13929100D02*
X-11901400Y13929100D01*
X-11901400Y13929100D02*
X-12244000Y13586500D01*
X-12244000Y13586500D02*
X-12244000Y12494000D01*
X-12244000Y12494000D02*
X-11450000Y11700000D01*
X9750000Y13200000D02*
X9950000Y13200000D01*
X9950000Y13200000D02*
X11450000Y11700000D01*
X-11500000Y5550000D02*
X-11849400Y5200600D01*
X-11849400Y5200600D02*
X-11849400Y-6370900D01*
X-11849400Y-6370900D02*
X-11335100Y-6885200D01*
X-11335100Y-6885200D02*
X-10622400Y-6885200D01*
X-10622400Y-6885200D02*
X-9145000Y-5407800D01*
X-9145000Y-5407800D02*
X-9145000Y-5151200D01*
X-11500000Y7250000D02*
X-10000000Y7250000D01*
X-2500000Y5550000D02*
X-4000000Y5550000D01*
X-2500000Y7250000D02*
X-2500000Y7344900D01*
X-2500000Y7344900D02*
X-1819200Y8025700D01*
X-3973200Y4585200D02*
X-3973200Y2349800D01*
X-3973200Y2349800D02*
X-5573000Y750000D01*
X-6399800Y-652200D02*
X-6110000Y-652200D01*
X-6110000Y-652200D02*
X-2322200Y3135600D01*
X-2321100Y2238000D02*
X-2445200Y2113900D01*
X-2445200Y2113900D02*
X-2445200Y1300300D01*
X-2445200Y1300300D02*
X-2250000Y1105100D01*
X-2250000Y150000D02*
X-2250000Y1105100D01*
X-1750000Y150000D02*
X-1750000Y1105100D01*
X-1750000Y1105100D02*
X-1835300Y1190400D01*
X-1835300Y1190400D02*
X-1835300Y1564600D01*
X-1250000Y1105100D02*
X-1225400Y1129700D01*
X-1225400Y1129700D02*
X-1225400Y5573100D01*
X-1250000Y150000D02*
X-1250000Y1105100D01*
X-750000Y-805100D02*
X-750000Y-1010900D01*
X-750000Y150000D02*
X-750000Y-805100D01*
X-250000Y150000D02*
X-250000Y2016000D01*
X-5500000Y5550000D02*
X-7027600Y4022400D01*
X-7027600Y4022400D02*
X-7027600Y-933900D01*
X-7027600Y-933900D02*
X-6266600Y-1694900D01*
X-6266600Y-1694900D02*
X-2435500Y-1694900D01*
X-2435500Y-1694900D02*
X-2036600Y-2093800D01*
X-2036600Y-2093800D02*
X1338200Y-2093800D01*
X1338200Y-2093800D02*
X1885300Y-1546700D01*
X1885300Y-1546700D02*
X1885300Y-993400D01*
X1885300Y-993400D02*
X1750000Y-858100D01*
X1750000Y-858100D02*
X1750000Y150000D01*
X4700000Y-6294900D02*
X2292000Y-3886900D01*
X4700000Y-7000000D02*
X4700000Y-6294900D01*
X2292000Y-825350D02*
X2292000Y-3886900D01*
X2250000Y-783350D02*
X2292000Y-825350D01*
X2250000Y150000D02*
X2250000Y-783350D01*
X8400000Y300000D02*
X8400000Y-705100D01*
X8400000Y-705100D02*
X8455100Y-705100D01*
X8455100Y-705100D02*
X9500000Y-1750000D01*
X7844200Y-3450000D02*
X7844200Y-3094200D01*
X7844200Y-3094200D02*
X6500000Y-1750000D01*
X6700000Y-7244900D02*
X6611900Y-7244900D01*
X6611900Y-7244900D02*
X5944800Y-6577800D01*
X5944800Y-6577800D02*
X5944800Y-5349400D01*
X5944800Y-5349400D02*
X7844200Y-3450000D01*
X7844200Y-3450000D02*
X8000000Y-3450000D01*
X6700000Y-7950000D02*
X6700000Y-7244900D01*
X-7600000Y12950000D02*
X-6764900Y12950000D01*
X-6764900Y12950000D02*
X-5744900Y13970000D01*
X-5744900Y13970000D02*
X-5064500Y13970000D01*
X-8017500Y12950000D02*
X-7600000Y12950000D01*
X-8017500Y12950000D02*
X-8435100Y12950000D01*
X-9750000Y11700000D02*
X-9685100Y11700000D01*
X-9685100Y11700000D02*
X-8435100Y12950000D01*
X6764900Y11050000D02*
X6764900Y10676800D01*
X6764900Y10676800D02*
X5078400Y8990300D01*
X7600000Y11050000D02*
X6764900Y11050000D01*
X9750000Y11700000D02*
X9100000Y11050000D01*
X9100000Y11050000D02*
X7600000Y11050000D01*
X8000000Y-1750000D02*
X8000000Y-1760800D01*
X8000000Y-1760800D02*
X8723000Y-2483800D01*
X9500000Y-3450000D02*
X9500000Y-3589800D01*
X9500000Y-3589800D02*
X8834600Y-4255200D01*
X-1200000Y-13444900D02*
X-2015600Y-13444900D01*
X-2015600Y-13444900D02*
X-2680200Y-12780300D01*
X-2680200Y-12780300D02*
X-2680200Y-8014800D01*
X-2680200Y-8014800D02*
X-4524900Y-6170100D01*
X-1200000Y-14250000D02*
X-1200000Y-13444900D01*
X-2050000Y-11344900D02*
X-2268700Y-11126200D01*
X-2268700Y-11126200D02*
X-2268700Y-7563700D01*
X-2268700Y-7563700D02*
X-4598200Y-5234200D01*
X-4598200Y-5234200D02*
X-4909900Y-5234200D01*
X-2050000Y-12150000D02*
X-2050000Y-11344900D01*
D28*
X-7600000Y11050000D02*
X-8300000Y11050000D01*
X-8300000Y11050000D02*
X-8750000Y10600000D01*
X7600000Y12950000D02*
X6500000Y12950000D01*
M02*
