M48
; DRILL file {KiCad (5.1.10-1-10_14)} date Sunday, August 08, 2021 at 07:51:26 PM
; FORMAT={-:-/ absolute / metric / decimal}
; #@! TF.CreationDate,2021-08-08T19:51:26+09:00
; #@! TF.GenerationSoftware,Kicad,Pcbnew,(5.1.10-1-10_14)
FMAT,2
METRIC
T1C0.305
T2C0.700
T3C0.800
T4C0.900
%
G90
G05
T1
X-9.145Y-5.151
X-8.75Y10.6
X-6.4Y-0.652
X-5.573Y0.75
X-5.064Y13.97
X-4.91Y-5.234
X-4.732Y-11.653
X-4.525Y-6.17
X-3.973Y4.585
X-2.322Y3.136
X-2.321Y2.238
X-1.835Y1.565
X-1.819Y8.026
X-1.225Y5.573
X-0.75Y-1.011
X-0.25Y2.016
X0.278Y-11.132
X0.58Y2.193
X1.25Y-1.25
X1.56Y3.14
X2.667Y8.317
X2.8Y2.073
X5.078Y8.99
X6.5Y12.95
X8.723Y-2.484
X8.835Y-4.255
T2
X-11.0Y-1.0
X-11.0Y-2.27
X-11.0Y-3.54
X-11.0Y-4.81
X-11.0Y-6.08
T3
X12.0Y-1.0
X12.0Y-3.0
X12.0Y-5.0
T4
X-8.88Y-10.05
X-6.34Y-10.05
X-3.8Y-10.05
X-1.26Y-10.05
X1.28Y-10.05
X3.82Y-10.05
X6.36Y-10.05
X8.9Y-10.05
T0
M30
