G04 #@! TF.GenerationSoftware,KiCad,Pcbnew,(5.1.10-1-10_14)*
G04 #@! TF.CreationDate,2021-08-08T19:51:24+09:00*
G04 #@! TF.ProjectId,MiniCon,4d696e69-436f-46e2-9e6b-696361645f70,V1.0*
G04 #@! TF.SameCoordinates,Original*
G04 #@! TF.FileFunction,Copper,L2,Bot*
G04 #@! TF.FilePolarity,Positive*
%FSLAX46Y46*%
G04 Gerber Fmt 4.6, Leading zero omitted, Abs format (unit mm)*
G04 Created by KiCad (PCBNEW (5.1.10-1-10_14)) date 2021-08-08 19:51:24*
%MOMM*%
%LPD*%
G01*
G04 APERTURE LIST*
G04 #@! TA.AperFunction,SMDPad,CuDef*
%ADD10R,1.400000X0.150000*%
G04 #@! TD*
G04 #@! TA.AperFunction,SMDPad,CuDef*
%ADD11R,0.150000X1.400000*%
G04 #@! TD*
G04 #@! TA.AperFunction,ComponentPad*
%ADD12C,1.300000*%
G04 #@! TD*
G04 #@! TA.AperFunction,ComponentPad*
%ADD13R,1.000000X1.000000*%
G04 #@! TD*
G04 #@! TA.AperFunction,ComponentPad*
%ADD14O,1.000000X1.000000*%
G04 #@! TD*
G04 #@! TA.AperFunction,ComponentPad*
%ADD15R,1.400000X1.400000*%
G04 #@! TD*
G04 #@! TA.AperFunction,ComponentPad*
%ADD16C,1.400000*%
G04 #@! TD*
G04 #@! TA.AperFunction,SMDPad,CuDef*
%ADD17R,1.800000X1.900000*%
G04 #@! TD*
G04 #@! TA.AperFunction,SMDPad,CuDef*
%ADD18R,2.100000X1.600000*%
G04 #@! TD*
G04 #@! TA.AperFunction,SMDPad,CuDef*
%ADD19R,0.300000X1.750000*%
G04 #@! TD*
G04 #@! TA.AperFunction,ViaPad*
%ADD20C,0.609600*%
G04 #@! TD*
G04 #@! TA.AperFunction,Conductor*
%ADD21C,0.203200*%
G04 #@! TD*
G04 #@! TA.AperFunction,Conductor*
%ADD22C,0.254000*%
G04 #@! TD*
G04 #@! TA.AperFunction,Conductor*
%ADD23C,0.100000*%
G04 #@! TD*
G04 APERTURE END LIST*
D10*
X4350000Y2750000D03*
X4350000Y2250000D03*
X4350000Y1750000D03*
X4350000Y1250000D03*
X4350000Y750000D03*
X4350000Y250000D03*
X4350000Y-250000D03*
X4350000Y-750000D03*
X4350000Y-1250000D03*
X4350000Y-1750000D03*
X4350000Y-2250000D03*
X4350000Y-2750000D03*
D11*
X2750000Y-4350000D03*
X2250000Y-4350000D03*
X1750000Y-4350000D03*
X1250000Y-4350000D03*
X750000Y-4350000D03*
X250000Y-4350000D03*
X-250000Y-4350000D03*
X-750000Y-4350000D03*
X-1250000Y-4350000D03*
X-1750000Y-4350000D03*
X-2250000Y-4350000D03*
X-2750000Y-4350000D03*
D10*
X-4350000Y-2750000D03*
X-4350000Y-2250000D03*
X-4350000Y-1750000D03*
X-4350000Y-1250000D03*
X-4350000Y-750000D03*
X-4350000Y-250000D03*
X-4350000Y250000D03*
X-4350000Y750000D03*
X-4350000Y1250000D03*
X-4350000Y1750000D03*
X-4350000Y2250000D03*
X-4350000Y2750000D03*
D11*
X-2750000Y4350000D03*
X-2250000Y4350000D03*
X-1750000Y4350000D03*
X-1250000Y4350000D03*
X-750000Y4350000D03*
X-250000Y4350000D03*
X250000Y4350000D03*
X750000Y4350000D03*
X1250000Y4350000D03*
X1750000Y4350000D03*
X2250000Y4350000D03*
X2750000Y4350000D03*
D12*
X12000000Y-5000000D03*
X12000000Y-3000000D03*
X12000000Y-1000000D03*
D13*
X-11000000Y-1000000D03*
D14*
X-11000000Y-2270000D03*
X-11000000Y-3540000D03*
X-11000000Y-4810000D03*
X-11000000Y-6080000D03*
D15*
X8900000Y-10050000D03*
D16*
X6360000Y-10050000D03*
X3820000Y-10050000D03*
X1280000Y-10050000D03*
X-1260000Y-10050000D03*
X-3800000Y-10050000D03*
X-6340000Y-10050000D03*
X-8880000Y-10050000D03*
D17*
X3250000Y12600000D03*
X-3250000Y12600000D03*
D18*
X3100000Y10050000D03*
X-3100000Y10050000D03*
D19*
X1300000Y9725000D03*
X650000Y9725000D03*
X0Y9725000D03*
X-650000Y9725000D03*
X-1300000Y9725000D03*
D20*
X1559600Y3140200D03*
X2667300Y8317300D03*
X1250000Y-1250000D03*
X278100Y-11131800D03*
X-4731600Y-11652700D03*
X2800000Y2072700D03*
X580100Y2193100D03*
X-9145000Y-5151200D03*
X-1819200Y8025700D03*
X-5573000Y750000D03*
X-3973200Y4585200D03*
X-2322200Y3135600D03*
X-6399800Y-652200D03*
X-2321100Y2238000D03*
X-1835300Y1564600D03*
X-1225400Y5573100D03*
X-750000Y-1010900D03*
X-250000Y2016000D03*
X-5064500Y13970000D03*
X5078400Y8990300D03*
X8723000Y-2483800D03*
X8834600Y-4255200D03*
X-4524900Y-6170100D03*
X-4909900Y-5234200D03*
X-8750000Y10600000D03*
X6500000Y12950000D03*
D21*
X-3100000Y11100000D02*
X-3100000Y10050000D01*
X-3250000Y11344900D02*
X-3100000Y11194900D01*
X-3100000Y11194900D02*
X-3100000Y11100000D01*
X1300000Y9725000D02*
X1300000Y10315100D01*
X-2250000Y-4350000D02*
X-2250000Y-6196000D01*
X-2250000Y-6196000D02*
X-4926000Y-8872000D01*
X-4926000Y-8872000D02*
X-4926000Y-10075400D01*
X-4926000Y-10075400D02*
X-5963800Y-11113200D01*
X-5963800Y-11113200D02*
X-7816800Y-11113200D01*
X-7816800Y-11113200D02*
X-8880000Y-10050000D01*
X4852600Y-750000D02*
X5355100Y-750000D01*
X4350000Y-750000D02*
X4527400Y-750000D01*
X4852600Y-750000D02*
X4527400Y-750000D01*
X2250000Y3344900D02*
X1764300Y3344900D01*
X1764300Y3344900D02*
X1559600Y3140200D01*
X2250000Y4350000D02*
X2250000Y3344900D01*
X-11000000Y-1000000D02*
X-12260200Y-2260200D01*
X-12260200Y-2260200D02*
X-12260200Y-6669800D01*
X-12260200Y-6669800D02*
X-8880000Y-10050000D01*
X12000000Y-1000000D02*
X11750000Y-750000D01*
X11750000Y-750000D02*
X5355100Y-750000D01*
X-4610000Y3156700D02*
X-4610000Y7434900D01*
X-4610000Y7434900D02*
X-3100000Y8944900D01*
X-3100000Y10050000D02*
X-3100000Y8944900D01*
X-4610000Y3156700D02*
X-6038200Y3156700D01*
X-6038200Y3156700D02*
X-10194900Y-1000000D01*
X-3344900Y2250000D02*
X-3344900Y2951400D01*
X-3344900Y2951400D02*
X-3550200Y3156700D01*
X-3550200Y3156700D02*
X-4610000Y3156700D01*
X-4350000Y2250000D02*
X-3344900Y2250000D01*
X-3250000Y12600000D02*
X-3250000Y11344900D01*
X-11000000Y-1000000D02*
X-10194900Y-1000000D01*
X3100000Y10050000D02*
X3100000Y11150000D01*
X3250000Y11300000D02*
X3250000Y12600000D01*
X3100000Y11150000D02*
X3250000Y11300000D01*
X1300000Y9725000D02*
X1300000Y12550000D01*
X1350000Y12600000D02*
X-3250000Y12600000D01*
X1300000Y12550000D02*
X1350000Y12600000D01*
X3250000Y12600000D02*
X1350000Y12600000D01*
X3100000Y8750000D02*
X2667300Y8317300D01*
X3100000Y10050000D02*
X3100000Y8750000D01*
X1250000Y-1250000D02*
X3344900Y-1250000D01*
X-2750000Y-3344900D02*
X-844900Y-3344900D01*
X-844900Y-3344900D02*
X1250000Y-1250000D01*
X4350000Y-1250000D02*
X3344900Y-1250000D01*
X-2750000Y-4350000D02*
X-2750000Y-3344900D01*
X-6340000Y-10050000D02*
X-6340000Y-9710700D01*
X-6340000Y-9710700D02*
X-2750000Y-6120700D01*
X-2750000Y-6120700D02*
X-2750000Y-4350000D01*
X2750000Y4350000D02*
X2750000Y3344900D01*
X4350000Y2750000D02*
X3344900Y2750000D01*
X3344900Y2750000D02*
X2750000Y3344900D01*
X12000000Y-3000000D02*
X13010300Y-1989700D01*
X13010300Y-1989700D02*
X13010300Y-635500D01*
X13010300Y-635500D02*
X9624800Y2750000D01*
X9624800Y2750000D02*
X4350000Y2750000D01*
X-5355100Y2750000D02*
X-10035900Y-1930800D01*
X-10035900Y-1930800D02*
X-10035900Y-2575900D01*
X-10035900Y-2575900D02*
X-11000000Y-3540000D01*
X-4350000Y2750000D02*
X-5355100Y2750000D01*
X12000000Y-3000000D02*
X10250000Y-1250000D01*
X10250000Y-1250000D02*
X5355100Y-1250000D01*
X4350000Y-1250000D02*
X5355100Y-1250000D01*
X278100Y-11131800D02*
X-242800Y-11652700D01*
X-242800Y-11652700D02*
X-4731600Y-11652700D01*
X4350000Y1750000D02*
X3122700Y1750000D01*
X3122700Y1750000D02*
X2800000Y2072700D01*
X580100Y2193100D02*
X1523200Y1250000D01*
X1523200Y1250000D02*
X3344900Y1250000D01*
X4350000Y1250000D02*
X3344900Y1250000D01*
X-9145000Y-5151200D02*
X-9145000Y-4835200D01*
X-9145000Y-4835200D02*
X-5355100Y-1045300D01*
X-5355100Y-1045300D02*
X-5355100Y-250000D01*
X-4350000Y-250000D02*
X-5355100Y-250000D01*
X-1300000Y8544900D02*
X-1819200Y8025700D01*
X-1300000Y9725000D02*
X-1300000Y8544900D01*
X-3344900Y1250000D02*
X-2938200Y1656700D01*
X-2938200Y1656700D02*
X-2938200Y3119900D01*
X-2938200Y3119900D02*
X-3192400Y3374100D01*
X-3192400Y3374100D02*
X-3192400Y5153200D01*
X-3192400Y5153200D02*
X0Y8345600D01*
X0Y8345600D02*
X0Y8544900D01*
X-4350000Y1250000D02*
X-3344900Y1250000D01*
X0Y9725000D02*
X0Y8544900D01*
X-3973200Y4585200D02*
X-3973200Y4947600D01*
X-3973200Y4947600D02*
X-650000Y8270800D01*
X-650000Y8270800D02*
X-650000Y9725000D01*
X-5355100Y750000D02*
X-5573000Y750000D01*
X-4350000Y750000D02*
X-5355100Y750000D01*
X2250000Y-4350000D02*
X2250000Y-5355100D01*
X8900000Y-10050000D02*
X7894900Y-10050000D01*
X7894900Y-10050000D02*
X3200000Y-5355100D01*
X3200000Y-5355100D02*
X2250000Y-5355100D01*
X6360000Y-10050000D02*
X1750000Y-5440000D01*
X1750000Y-5440000D02*
X1750000Y-4350000D01*
X3820000Y-10050000D02*
X1250000Y-7480000D01*
X1250000Y-7480000D02*
X1250000Y-4350000D01*
X1280000Y-10050000D02*
X750000Y-9520000D01*
X750000Y-9520000D02*
X750000Y-4350000D01*
X250000Y-4350000D02*
X250000Y-8540000D01*
X250000Y-8540000D02*
X-1260000Y-10050000D01*
X-3800000Y-10050000D02*
X-250000Y-6500000D01*
X-250000Y-6500000D02*
X-250000Y-4350000D01*
X4350000Y-250000D02*
X1347200Y-250000D01*
X1347200Y-250000D02*
X-177700Y-1774900D01*
X-177700Y-1774900D02*
X-1783800Y-1774900D01*
X-1783800Y-1774900D02*
X-3616100Y-3607200D01*
X-3616100Y-3607200D02*
X-3616100Y-6124200D01*
X-3616100Y-6124200D02*
X-4385600Y-6893700D01*
X-4385600Y-6893700D02*
X-11354400Y-6893700D01*
X-11354400Y-6893700D02*
X-11836900Y-6411200D01*
X-11836900Y-6411200D02*
X-11836900Y-3106900D01*
X-11836900Y-3106900D02*
X-11000000Y-2270000D01*
X-10194900Y-4810000D02*
X-10194900Y-4447300D01*
X-10194900Y-4447300D02*
X-6399800Y-652200D01*
X-11000000Y-4810000D02*
X-10194900Y-4810000D01*
X-2750000Y4350000D02*
X-2750000Y3563400D01*
X-2750000Y3563400D02*
X-2322200Y3135600D01*
X-10194900Y-6080000D02*
X-9754900Y-5640000D01*
X-9754900Y-5640000D02*
X-9754900Y-4869900D01*
X-9754900Y-4869900D02*
X-5789900Y-904900D01*
X-5789900Y-904900D02*
X-5789900Y-95100D01*
X-5789900Y-95100D02*
X-6201200Y316200D01*
X-6201200Y316200D02*
X-6201200Y999200D01*
X-6201200Y999200D02*
X-5450400Y1750000D01*
X-5450400Y1750000D02*
X-4350000Y1750000D01*
X-11000000Y-6080000D02*
X-10194900Y-6080000D01*
X-1250000Y4350000D02*
X-1250000Y3309100D01*
X-1250000Y3309100D02*
X-2321100Y2238000D01*
X-1835300Y1564600D02*
X-1617800Y1782100D01*
X-1617800Y1782100D02*
X-1617800Y2264300D01*
X-1617800Y2264300D02*
X-750000Y3132100D01*
X-750000Y3132100D02*
X-750000Y4350000D01*
X-1750000Y5355100D02*
X-1443400Y5355100D01*
X-1443400Y5355100D02*
X-1225400Y5573100D01*
X-1750000Y4350000D02*
X-1750000Y5355100D01*
X-750000Y-1010900D02*
X-871300Y-889600D01*
X-871300Y-889600D02*
X-871300Y2435500D01*
X-871300Y2435500D02*
X-250000Y3056800D01*
X-250000Y3056800D02*
X-250000Y4350000D01*
X250000Y3344900D02*
X250000Y2981600D01*
X250000Y2981600D02*
X-250000Y2481600D01*
X-250000Y2481600D02*
X-250000Y2016000D01*
X250000Y4350000D02*
X250000Y3344900D01*
X1250000Y4350000D02*
X1250000Y5889000D01*
X1250000Y5889000D02*
X4468400Y9107400D01*
X4468400Y9107400D02*
X4468400Y13669000D01*
X4468400Y13669000D02*
X4167400Y13970000D01*
X4167400Y13970000D02*
X-5064500Y13970000D01*
X5078400Y8990300D02*
X1750000Y5661900D01*
X1750000Y5661900D02*
X1750000Y4350000D01*
X8723000Y-2483800D02*
X8489200Y-2250000D01*
X8489200Y-2250000D02*
X4350000Y-2250000D01*
X5355100Y-2750000D02*
X6860300Y-4255200D01*
X6860300Y-4255200D02*
X8834600Y-4255200D01*
X4350000Y-2750000D02*
X5355100Y-2750000D01*
X12000000Y-5000000D02*
X12000000Y-4897000D01*
X12000000Y-4897000D02*
X8853000Y-1750000D01*
X8853000Y-1750000D02*
X4350000Y-1750000D01*
X-4524900Y-6170100D02*
X-4860600Y-6170100D01*
X-4860600Y-6170100D02*
X-5805700Y-5225000D01*
X-5805700Y-5225000D02*
X-5805700Y-2200600D01*
X-5805700Y-2200600D02*
X-5355100Y-1750000D01*
X-4350000Y-1750000D02*
X-5355100Y-1750000D01*
X-4350000Y-2250000D02*
X-5061900Y-2250000D01*
X-5061900Y-2250000D02*
X-5377200Y-2565300D01*
X-5377200Y-2565300D02*
X-5377200Y-4766900D01*
X-5377200Y-4766900D02*
X-4909900Y-5234200D01*
D22*
X12740000Y8577000D02*
X6227000Y8577000D01*
X6227000Y14090000D01*
X12740000Y14090000D01*
X12740000Y8577000D01*
G04 #@! TA.AperFunction,Conductor*
D23*
G36*
X12740000Y8577000D02*
G01*
X6227000Y8577000D01*
X6227000Y14090000D01*
X12740000Y14090000D01*
X12740000Y8577000D01*
G37*
G04 #@! TD.AperFunction*
D22*
X-6227000Y8577000D02*
X-12740000Y8577000D01*
X-12740000Y14090000D01*
X-6227000Y14090000D01*
X-6227000Y8577000D01*
G04 #@! TA.AperFunction,Conductor*
D23*
G36*
X-6227000Y8577000D02*
G01*
X-12740000Y8577000D01*
X-12740000Y14090000D01*
X-6227000Y14090000D01*
X-6227000Y8577000D01*
G37*
G04 #@! TD.AperFunction*
M02*
