G04 #@! TF.GenerationSoftware,KiCad,Pcbnew,(5.1.10-1-10_14)*
G04 #@! TF.CreationDate,2021-08-08T19:51:24+09:00*
G04 #@! TF.ProjectId,MiniCon,4d696e69-436f-46e2-9e6b-696361645f70,V1.0*
G04 #@! TF.SameCoordinates,Original*
G04 #@! TF.FileFunction,Paste,Top*
G04 #@! TF.FilePolarity,Positive*
%FSLAX46Y46*%
G04 Gerber Fmt 4.6, Leading zero omitted, Abs format (unit mm)*
G04 Created by KiCad (PCBNEW (5.1.10-1-10_14)) date 2021-08-08 19:51:24*
%MOMM*%
%LPD*%
G01*
G04 APERTURE LIST*
%ADD10R,1.200000X1.800000*%
%ADD11R,1.060000X0.500000*%
%ADD12R,1.500000X0.700000*%
%ADD13C,0.100000*%
%ADD14R,0.650000X1.000000*%
%ADD15R,0.350000X1.000000*%
%ADD16R,0.900000X0.800000*%
%ADD17R,3.200000X1.400000*%
%ADD18R,1.800000X2.200000*%
%ADD19R,0.150000X1.300000*%
%ADD20R,1.000000X2.000000*%
G04 APERTURE END LIST*
D10*
X200000Y3650000D03*
X2800000Y3650000D03*
D11*
X-9700000Y-12450000D03*
X-9700000Y-13400000D03*
X-9700000Y-14350000D03*
X-7500000Y-14350000D03*
X-7500000Y-12450000D03*
D12*
X1850000Y12500000D03*
X1850000Y9500000D03*
X-1850000Y12500000D03*
X-1850000Y9500000D03*
D13*
G36*
X900000Y11500000D02*
G01*
X2600000Y11500000D01*
X2600000Y10500000D01*
X900000Y10500000D01*
X400000Y10000000D01*
X-400000Y10000000D01*
X-400000Y10500000D01*
X-2600000Y10500000D01*
X-2600000Y11500000D01*
X-400000Y11500000D01*
X-400000Y12000000D01*
X400000Y12000000D01*
X900000Y11500000D01*
G37*
D14*
X1050000Y-14250000D03*
D15*
X200000Y-14250000D03*
X-500000Y-14250000D03*
X-1200000Y-14250000D03*
D14*
X-2050000Y-14250000D03*
X-2050000Y-12150000D03*
D15*
X-1200000Y-12150000D03*
X-500000Y-12150000D03*
X200000Y-12150000D03*
D14*
X1050000Y-12150000D03*
D11*
X7600000Y11050000D03*
X7600000Y12000000D03*
X7600000Y12950000D03*
X5400000Y12950000D03*
X5400000Y11050000D03*
X5400000Y12000000D03*
X-7600000Y12950000D03*
X-7600000Y12000000D03*
X-7600000Y11050000D03*
X-5400000Y11050000D03*
X-5400000Y12950000D03*
X-5400000Y12000000D03*
G36*
G01*
X-10200000Y7700000D02*
X-9800000Y7700000D01*
G75*
G02*
X-9600000Y7500000I0J-200000D01*
G01*
X-9600000Y7000000D01*
G75*
G02*
X-9800000Y6800000I-200000J0D01*
G01*
X-10200000Y6800000D01*
G75*
G02*
X-10400000Y7000000I0J200000D01*
G01*
X-10400000Y7500000D01*
G75*
G02*
X-10200000Y7700000I200000J0D01*
G01*
G37*
G36*
G01*
X-10200000Y6000000D02*
X-9800000Y6000000D01*
G75*
G02*
X-9600000Y5800000I0J-200000D01*
G01*
X-9600000Y5300000D01*
G75*
G02*
X-9800000Y5100000I-200000J0D01*
G01*
X-10200000Y5100000D01*
G75*
G02*
X-10400000Y5300000I0J200000D01*
G01*
X-10400000Y5800000D01*
G75*
G02*
X-10200000Y6000000I200000J0D01*
G01*
G37*
G36*
G01*
X9300000Y-1300000D02*
X9700000Y-1300000D01*
G75*
G02*
X9900000Y-1500000I0J-200000D01*
G01*
X9900000Y-2000000D01*
G75*
G02*
X9700000Y-2200000I-200000J0D01*
G01*
X9300000Y-2200000D01*
G75*
G02*
X9100000Y-2000000I0J200000D01*
G01*
X9100000Y-1500000D01*
G75*
G02*
X9300000Y-1300000I200000J0D01*
G01*
G37*
G36*
G01*
X9300000Y-3000000D02*
X9700000Y-3000000D01*
G75*
G02*
X9900000Y-3200000I0J-200000D01*
G01*
X9900000Y-3700000D01*
G75*
G02*
X9700000Y-3900000I-200000J0D01*
G01*
X9300000Y-3900000D01*
G75*
G02*
X9100000Y-3700000I0J200000D01*
G01*
X9100000Y-3200000D01*
G75*
G02*
X9300000Y-3000000I200000J0D01*
G01*
G37*
G36*
G01*
X6300000Y-1300000D02*
X6700000Y-1300000D01*
G75*
G02*
X6900000Y-1500000I0J-200000D01*
G01*
X6900000Y-2000000D01*
G75*
G02*
X6700000Y-2200000I-200000J0D01*
G01*
X6300000Y-2200000D01*
G75*
G02*
X6100000Y-2000000I0J200000D01*
G01*
X6100000Y-1500000D01*
G75*
G02*
X6300000Y-1300000I200000J0D01*
G01*
G37*
G36*
G01*
X6300000Y-3000000D02*
X6700000Y-3000000D01*
G75*
G02*
X6900000Y-3200000I0J-200000D01*
G01*
X6900000Y-3700000D01*
G75*
G02*
X6700000Y-3900000I-200000J0D01*
G01*
X6300000Y-3900000D01*
G75*
G02*
X6100000Y-3700000I0J200000D01*
G01*
X6100000Y-3200000D01*
G75*
G02*
X6300000Y-3000000I200000J0D01*
G01*
G37*
G36*
G01*
X-5700000Y7700000D02*
X-5300000Y7700000D01*
G75*
G02*
X-5100000Y7500000I0J-200000D01*
G01*
X-5100000Y7000000D01*
G75*
G02*
X-5300000Y6800000I-200000J0D01*
G01*
X-5700000Y6800000D01*
G75*
G02*
X-5900000Y7000000I0J200000D01*
G01*
X-5900000Y7500000D01*
G75*
G02*
X-5700000Y7700000I200000J0D01*
G01*
G37*
G36*
G01*
X-5700000Y6000000D02*
X-5300000Y6000000D01*
G75*
G02*
X-5100000Y5800000I0J-200000D01*
G01*
X-5100000Y5300000D01*
G75*
G02*
X-5300000Y5100000I-200000J0D01*
G01*
X-5700000Y5100000D01*
G75*
G02*
X-5900000Y5300000I0J200000D01*
G01*
X-5900000Y5800000D01*
G75*
G02*
X-5700000Y6000000I200000J0D01*
G01*
G37*
G36*
G01*
X8200000Y-3900000D02*
X7800000Y-3900000D01*
G75*
G02*
X7600000Y-3700000I0J200000D01*
G01*
X7600000Y-3200000D01*
G75*
G02*
X7800000Y-3000000I200000J0D01*
G01*
X8200000Y-3000000D01*
G75*
G02*
X8400000Y-3200000I0J-200000D01*
G01*
X8400000Y-3700000D01*
G75*
G02*
X8200000Y-3900000I-200000J0D01*
G01*
G37*
G36*
G01*
X8200000Y-2200000D02*
X7800000Y-2200000D01*
G75*
G02*
X7600000Y-2000000I0J200000D01*
G01*
X7600000Y-1500000D01*
G75*
G02*
X7800000Y-1300000I200000J0D01*
G01*
X8200000Y-1300000D01*
G75*
G02*
X8400000Y-1500000I0J-200000D01*
G01*
X8400000Y-2000000D01*
G75*
G02*
X8200000Y-2200000I-200000J0D01*
G01*
G37*
G36*
G01*
X9300000Y11500000D02*
X9300000Y11900000D01*
G75*
G02*
X9500000Y12100000I200000J0D01*
G01*
X10000000Y12100000D01*
G75*
G02*
X10200000Y11900000I0J-200000D01*
G01*
X10200000Y11500000D01*
G75*
G02*
X10000000Y11300000I-200000J0D01*
G01*
X9500000Y11300000D01*
G75*
G02*
X9300000Y11500000I0J200000D01*
G01*
G37*
G36*
G01*
X11000000Y11500000D02*
X11000000Y11900000D01*
G75*
G02*
X11200000Y12100000I200000J0D01*
G01*
X11700000Y12100000D01*
G75*
G02*
X11900000Y11900000I0J-200000D01*
G01*
X11900000Y11500000D01*
G75*
G02*
X11700000Y11300000I-200000J0D01*
G01*
X11200000Y11300000D01*
G75*
G02*
X11000000Y11500000I0J200000D01*
G01*
G37*
G36*
G01*
X-9300000Y11900000D02*
X-9300000Y11500000D01*
G75*
G02*
X-9500000Y11300000I-200000J0D01*
G01*
X-10000000Y11300000D01*
G75*
G02*
X-10200000Y11500000I0J200000D01*
G01*
X-10200000Y11900000D01*
G75*
G02*
X-10000000Y12100000I200000J0D01*
G01*
X-9500000Y12100000D01*
G75*
G02*
X-9300000Y11900000I0J-200000D01*
G01*
G37*
G36*
G01*
X-11000000Y11900000D02*
X-11000000Y11500000D01*
G75*
G02*
X-11200000Y11300000I-200000J0D01*
G01*
X-11700000Y11300000D01*
G75*
G02*
X-11900000Y11500000I0J200000D01*
G01*
X-11900000Y11900000D01*
G75*
G02*
X-11700000Y12100000I200000J0D01*
G01*
X-11200000Y12100000D01*
G75*
G02*
X-11000000Y11900000I0J-200000D01*
G01*
G37*
G36*
G01*
X4800000Y-14600000D02*
X4400000Y-14600000D01*
G75*
G02*
X4200000Y-14400000I0J200000D01*
G01*
X4200000Y-13900000D01*
G75*
G02*
X4400000Y-13700000I200000J0D01*
G01*
X4800000Y-13700000D01*
G75*
G02*
X5000000Y-13900000I0J-200000D01*
G01*
X5000000Y-14400000D01*
G75*
G02*
X4800000Y-14600000I-200000J0D01*
G01*
G37*
G36*
G01*
X4800000Y-12900000D02*
X4400000Y-12900000D01*
G75*
G02*
X4200000Y-12700000I0J200000D01*
G01*
X4200000Y-12200000D01*
G75*
G02*
X4400000Y-12000000I200000J0D01*
G01*
X4800000Y-12000000D01*
G75*
G02*
X5000000Y-12200000I0J-200000D01*
G01*
X5000000Y-12700000D01*
G75*
G02*
X4800000Y-12900000I-200000J0D01*
G01*
G37*
D16*
X4700000Y-7000000D03*
X6700000Y-6050000D03*
X6700000Y-7950000D03*
D17*
X8400000Y8700000D03*
X8400000Y300000D03*
G36*
G01*
X-4200000Y7700000D02*
X-3800000Y7700000D01*
G75*
G02*
X-3600000Y7500000I0J-200000D01*
G01*
X-3600000Y7000000D01*
G75*
G02*
X-3800000Y6800000I-200000J0D01*
G01*
X-4200000Y6800000D01*
G75*
G02*
X-4400000Y7000000I0J200000D01*
G01*
X-4400000Y7500000D01*
G75*
G02*
X-4200000Y7700000I200000J0D01*
G01*
G37*
G36*
G01*
X-4200000Y6000000D02*
X-3800000Y6000000D01*
G75*
G02*
X-3600000Y5800000I0J-200000D01*
G01*
X-3600000Y5300000D01*
G75*
G02*
X-3800000Y5100000I-200000J0D01*
G01*
X-4200000Y5100000D01*
G75*
G02*
X-4400000Y5300000I0J200000D01*
G01*
X-4400000Y5800000D01*
G75*
G02*
X-4200000Y6000000I200000J0D01*
G01*
G37*
D18*
X4650000Y-3100000D03*
X-4650000Y-3100000D03*
D19*
X-2750000Y150000D03*
X-2250000Y150000D03*
X-1750000Y150000D03*
X-1250000Y150000D03*
X-750000Y150000D03*
X-250000Y150000D03*
X250000Y150000D03*
X750000Y150000D03*
X1250000Y150000D03*
X1750000Y150000D03*
X2250000Y150000D03*
X2750000Y150000D03*
G36*
G01*
X-2300000Y5100000D02*
X-2700000Y5100000D01*
G75*
G02*
X-2900000Y5300000I0J200000D01*
G01*
X-2900000Y5800000D01*
G75*
G02*
X-2700000Y6000000I200000J0D01*
G01*
X-2300000Y6000000D01*
G75*
G02*
X-2100000Y5800000I0J-200000D01*
G01*
X-2100000Y5300000D01*
G75*
G02*
X-2300000Y5100000I-200000J0D01*
G01*
G37*
G36*
G01*
X-2300000Y6800000D02*
X-2700000Y6800000D01*
G75*
G02*
X-2900000Y7000000I0J200000D01*
G01*
X-2900000Y7500000D01*
G75*
G02*
X-2700000Y7700000I200000J0D01*
G01*
X-2300000Y7700000D01*
G75*
G02*
X-2100000Y7500000I0J-200000D01*
G01*
X-2100000Y7000000D01*
G75*
G02*
X-2300000Y6800000I-200000J0D01*
G01*
G37*
G36*
G01*
X-11300000Y5100000D02*
X-11700000Y5100000D01*
G75*
G02*
X-11900000Y5300000I0J200000D01*
G01*
X-11900000Y5800000D01*
G75*
G02*
X-11700000Y6000000I200000J0D01*
G01*
X-11300000Y6000000D01*
G75*
G02*
X-11100000Y5800000I0J-200000D01*
G01*
X-11100000Y5300000D01*
G75*
G02*
X-11300000Y5100000I-200000J0D01*
G01*
G37*
G36*
G01*
X-11300000Y6800000D02*
X-11700000Y6800000D01*
G75*
G02*
X-11900000Y7000000I0J200000D01*
G01*
X-11900000Y7500000D01*
G75*
G02*
X-11700000Y7700000I200000J0D01*
G01*
X-11300000Y7700000D01*
G75*
G02*
X-11100000Y7500000I0J-200000D01*
G01*
X-11100000Y7000000D01*
G75*
G02*
X-11300000Y6800000I-200000J0D01*
G01*
G37*
G36*
G01*
X11900000Y13400000D02*
X11900000Y13000000D01*
G75*
G02*
X11700000Y12800000I-200000J0D01*
G01*
X11200000Y12800000D01*
G75*
G02*
X11000000Y13000000I0J200000D01*
G01*
X11000000Y13400000D01*
G75*
G02*
X11200000Y13600000I200000J0D01*
G01*
X11700000Y13600000D01*
G75*
G02*
X11900000Y13400000I0J-200000D01*
G01*
G37*
G36*
G01*
X10200000Y13400000D02*
X10200000Y13000000D01*
G75*
G02*
X10000000Y12800000I-200000J0D01*
G01*
X9500000Y12800000D01*
G75*
G02*
X9300000Y13000000I0J200000D01*
G01*
X9300000Y13400000D01*
G75*
G02*
X9500000Y13600000I200000J0D01*
G01*
X10000000Y13600000D01*
G75*
G02*
X10200000Y13400000I0J-200000D01*
G01*
G37*
G36*
G01*
X-11900000Y13000000D02*
X-11900000Y13400000D01*
G75*
G02*
X-11700000Y13600000I200000J0D01*
G01*
X-11200000Y13600000D01*
G75*
G02*
X-11000000Y13400000I0J-200000D01*
G01*
X-11000000Y13000000D01*
G75*
G02*
X-11200000Y12800000I-200000J0D01*
G01*
X-11700000Y12800000D01*
G75*
G02*
X-11900000Y13000000I0J200000D01*
G01*
G37*
G36*
G01*
X-10200000Y13000000D02*
X-10200000Y13400000D01*
G75*
G02*
X-10000000Y13600000I200000J0D01*
G01*
X-9500000Y13600000D01*
G75*
G02*
X-9300000Y13400000I0J-200000D01*
G01*
X-9300000Y13000000D01*
G75*
G02*
X-9500000Y12800000I-200000J0D01*
G01*
X-10000000Y12800000D01*
G75*
G02*
X-10200000Y13000000I0J200000D01*
G01*
G37*
G36*
G01*
X-7100000Y-6500000D02*
X-7500000Y-6500000D01*
G75*
G02*
X-7700000Y-6300000I0J200000D01*
G01*
X-7700000Y-5800000D01*
G75*
G02*
X-7500000Y-5600000I200000J0D01*
G01*
X-7100000Y-5600000D01*
G75*
G02*
X-6900000Y-5800000I0J-200000D01*
G01*
X-6900000Y-6300000D01*
G75*
G02*
X-7100000Y-6500000I-200000J0D01*
G01*
G37*
G36*
G01*
X-7100000Y-4800000D02*
X-7500000Y-4800000D01*
G75*
G02*
X-7700000Y-4600000I0J200000D01*
G01*
X-7700000Y-4100000D01*
G75*
G02*
X-7500000Y-3900000I200000J0D01*
G01*
X-7100000Y-3900000D01*
G75*
G02*
X-6900000Y-4100000I0J-200000D01*
G01*
X-6900000Y-4600000D01*
G75*
G02*
X-7100000Y-4800000I-200000J0D01*
G01*
G37*
G36*
G01*
X-8300000Y5100000D02*
X-8700000Y5100000D01*
G75*
G02*
X-8900000Y5300000I0J200000D01*
G01*
X-8900000Y5800000D01*
G75*
G02*
X-8700000Y6000000I200000J0D01*
G01*
X-8300000Y6000000D01*
G75*
G02*
X-8100000Y5800000I0J-200000D01*
G01*
X-8100000Y5300000D01*
G75*
G02*
X-8300000Y5100000I-200000J0D01*
G01*
G37*
G36*
G01*
X-8300000Y6800000D02*
X-8700000Y6800000D01*
G75*
G02*
X-8900000Y7000000I0J200000D01*
G01*
X-8900000Y7500000D01*
G75*
G02*
X-8700000Y7700000I200000J0D01*
G01*
X-8300000Y7700000D01*
G75*
G02*
X-8100000Y7500000I0J-200000D01*
G01*
X-8100000Y7000000D01*
G75*
G02*
X-8300000Y6800000I-200000J0D01*
G01*
G37*
G36*
G01*
X600000Y5100000D02*
X600000Y5400000D01*
G75*
G02*
X750000Y5550000I150000J0D01*
G01*
X1050000Y5550000D01*
G75*
G02*
X1200000Y5400000I0J-150000D01*
G01*
X1200000Y5100000D01*
G75*
G02*
X1050000Y4950000I-150000J0D01*
G01*
X750000Y4950000D01*
G75*
G02*
X600000Y5100000I0J150000D01*
G01*
G37*
G36*
G01*
X-400000Y5100000D02*
X-400000Y5400000D01*
G75*
G02*
X-250000Y5550000I150000J0D01*
G01*
X50000Y5550000D01*
G75*
G02*
X200000Y5400000I0J-150000D01*
G01*
X200000Y5100000D01*
G75*
G02*
X50000Y4950000I-150000J0D01*
G01*
X-250000Y4950000D01*
G75*
G02*
X-400000Y5100000I0J150000D01*
G01*
G37*
G36*
G01*
X2400000Y5400000D02*
X2400000Y5100000D01*
G75*
G02*
X2250000Y4950000I-150000J0D01*
G01*
X1950000Y4950000D01*
G75*
G02*
X1800000Y5100000I0J150000D01*
G01*
X1800000Y5400000D01*
G75*
G02*
X1950000Y5550000I150000J0D01*
G01*
X2250000Y5550000D01*
G75*
G02*
X2400000Y5400000I0J-150000D01*
G01*
G37*
G36*
G01*
X3400000Y5400000D02*
X3400000Y5100000D01*
G75*
G02*
X3250000Y4950000I-150000J0D01*
G01*
X2950000Y4950000D01*
G75*
G02*
X2800000Y5100000I0J150000D01*
G01*
X2800000Y5400000D01*
G75*
G02*
X2950000Y5550000I150000J0D01*
G01*
X3250000Y5550000D01*
G75*
G02*
X3400000Y5400000I0J-150000D01*
G01*
G37*
G36*
G01*
X-4100000Y-12000000D02*
X-3700000Y-12000000D01*
G75*
G02*
X-3500000Y-12200000I0J-200000D01*
G01*
X-3500000Y-12700000D01*
G75*
G02*
X-3700000Y-12900000I-200000J0D01*
G01*
X-4100000Y-12900000D01*
G75*
G02*
X-4300000Y-12700000I0J200000D01*
G01*
X-4300000Y-12200000D01*
G75*
G02*
X-4100000Y-12000000I200000J0D01*
G01*
G37*
G36*
G01*
X-4100000Y-13700000D02*
X-3700000Y-13700000D01*
G75*
G02*
X-3500000Y-13900000I0J-200000D01*
G01*
X-3500000Y-14400000D01*
G75*
G02*
X-3700000Y-14600000I-200000J0D01*
G01*
X-4100000Y-14600000D01*
G75*
G02*
X-4300000Y-14400000I0J200000D01*
G01*
X-4300000Y-13900000D01*
G75*
G02*
X-4100000Y-13700000I200000J0D01*
G01*
G37*
G36*
G01*
X-5600000Y-12000000D02*
X-5200000Y-12000000D01*
G75*
G02*
X-5000000Y-12200000I0J-200000D01*
G01*
X-5000000Y-12700000D01*
G75*
G02*
X-5200000Y-12900000I-200000J0D01*
G01*
X-5600000Y-12900000D01*
G75*
G02*
X-5800000Y-12700000I0J200000D01*
G01*
X-5800000Y-12200000D01*
G75*
G02*
X-5600000Y-12000000I200000J0D01*
G01*
G37*
G36*
G01*
X-5600000Y-13700000D02*
X-5200000Y-13700000D01*
G75*
G02*
X-5000000Y-13900000I0J-200000D01*
G01*
X-5000000Y-14400000D01*
G75*
G02*
X-5200000Y-14600000I-200000J0D01*
G01*
X-5600000Y-14600000D01*
G75*
G02*
X-5800000Y-14400000I0J200000D01*
G01*
X-5800000Y-13900000D01*
G75*
G02*
X-5600000Y-13700000I200000J0D01*
G01*
G37*
G36*
G01*
X-11700000Y-14600000D02*
X-12100000Y-14600000D01*
G75*
G02*
X-12300000Y-14400000I0J200000D01*
G01*
X-12300000Y-13900000D01*
G75*
G02*
X-12100000Y-13700000I200000J0D01*
G01*
X-11700000Y-13700000D01*
G75*
G02*
X-11500000Y-13900000I0J-200000D01*
G01*
X-11500000Y-14400000D01*
G75*
G02*
X-11700000Y-14600000I-200000J0D01*
G01*
G37*
G36*
G01*
X-11700000Y-12900000D02*
X-12100000Y-12900000D01*
G75*
G02*
X-12300000Y-12700000I0J200000D01*
G01*
X-12300000Y-12200000D01*
G75*
G02*
X-12100000Y-12000000I200000J0D01*
G01*
X-11700000Y-12000000D01*
G75*
G02*
X-11500000Y-12200000I0J-200000D01*
G01*
X-11500000Y-12700000D01*
G75*
G02*
X-11700000Y-12900000I-200000J0D01*
G01*
G37*
G36*
G01*
X3400000Y12300000D02*
X3800000Y12300000D01*
G75*
G02*
X4000000Y12100000I0J-200000D01*
G01*
X4000000Y11600000D01*
G75*
G02*
X3800000Y11400000I-200000J0D01*
G01*
X3400000Y11400000D01*
G75*
G02*
X3200000Y11600000I0J200000D01*
G01*
X3200000Y12100000D01*
G75*
G02*
X3400000Y12300000I200000J0D01*
G01*
G37*
G36*
G01*
X3400000Y10600000D02*
X3800000Y10600000D01*
G75*
G02*
X4000000Y10400000I0J-200000D01*
G01*
X4000000Y9900000D01*
G75*
G02*
X3800000Y9700000I-200000J0D01*
G01*
X3400000Y9700000D01*
G75*
G02*
X3200000Y9900000I0J200000D01*
G01*
X3200000Y10400000D01*
G75*
G02*
X3400000Y10600000I200000J0D01*
G01*
G37*
G36*
G01*
X-3800000Y12300000D02*
X-3400000Y12300000D01*
G75*
G02*
X-3200000Y12100000I0J-200000D01*
G01*
X-3200000Y11600000D01*
G75*
G02*
X-3400000Y11400000I-200000J0D01*
G01*
X-3800000Y11400000D01*
G75*
G02*
X-4000000Y11600000I0J200000D01*
G01*
X-4000000Y12100000D01*
G75*
G02*
X-3800000Y12300000I200000J0D01*
G01*
G37*
G36*
G01*
X-3800000Y10600000D02*
X-3400000Y10600000D01*
G75*
G02*
X-3200000Y10400000I0J-200000D01*
G01*
X-3200000Y9900000D01*
G75*
G02*
X-3400000Y9700000I-200000J0D01*
G01*
X-3800000Y9700000D01*
G75*
G02*
X-4000000Y9900000I0J200000D01*
G01*
X-4000000Y10400000D01*
G75*
G02*
X-3800000Y10600000I200000J0D01*
G01*
G37*
G36*
G01*
X3300000Y-14600000D02*
X2900000Y-14600000D01*
G75*
G02*
X2700000Y-14400000I0J200000D01*
G01*
X2700000Y-13900000D01*
G75*
G02*
X2900000Y-13700000I200000J0D01*
G01*
X3300000Y-13700000D01*
G75*
G02*
X3500000Y-13900000I0J-200000D01*
G01*
X3500000Y-14400000D01*
G75*
G02*
X3300000Y-14600000I-200000J0D01*
G01*
G37*
G36*
G01*
X3300000Y-12900000D02*
X2900000Y-12900000D01*
G75*
G02*
X2700000Y-12700000I0J200000D01*
G01*
X2700000Y-12200000D01*
G75*
G02*
X2900000Y-12000000I200000J0D01*
G01*
X3300000Y-12000000D01*
G75*
G02*
X3500000Y-12200000I0J-200000D01*
G01*
X3500000Y-12700000D01*
G75*
G02*
X3300000Y-12900000I-200000J0D01*
G01*
G37*
D20*
X9750000Y-6500000D03*
X8250000Y-6500000D03*
M02*
